<svg width="47" height="50" viewBox="0 0 47 50" fill="none" xmlns="http://www.w3.org/2000/svg">
<path d="M27.3952 32.5977C28.4631 31.5298 30.1946 31.5298 31.2625 32.5977L37.0633 38.3985C38.1312 39.4663 38.1312 41.1977 37.0633 42.2656L31.2625 48.0664C30.1946 49.1343 28.4631 49.1343 27.3952 48.0664L21.5944 42.2656C20.5265 41.1977 20.5265 39.4663 21.5944 38.3985L27.3952 32.5977Z" fill="#FFB74D"/>
<path d="M22.3304 2.65046C22.702 1.18665 24.1898 0.301213 25.6537 0.672777L33.6052 2.69111C35.069 3.06267 35.9544 4.55054 35.5829 6.01434L33.5645 13.9657C33.1929 15.4295 31.705 16.315 30.2412 15.9434L22.2897 13.9251C20.8259 13.5535 19.9405 12.0656 20.312 10.6018L22.3304 2.65046Z" fill="#FFB74D"/>
<path d="M0 21.5095C0 20.0221 1.20577 18.8164 2.69317 18.8164H10.7727C12.2601 18.8164 13.4659 20.0221 13.4659 21.5095V29.5889C13.4659 31.0763 12.2601 32.282 10.7727 32.282H2.69317C1.20577 32.282 0 31.0763 0 29.5889V21.5095Z" fill="#FFB74D"/>
<path d="M36.1445 25.1948C36.1445 24.0206 37.0965 23.0687 38.2707 23.0687H44.6493C45.8235 23.0687 46.7755 24.0206 46.7755 25.1948V31.5733C46.7755 32.7475 45.8235 33.6995 44.6493 33.6995H38.2707C37.0965 33.6995 36.1445 32.7475 36.1445 31.5733V25.1948Z" fill="#FFB74D"/>
<path d="M9.45944 41.1509C8.93913 40.6036 8.96097 39.7382 9.50823 39.2179L12.4809 36.3916C13.0282 35.8713 13.8936 35.8931 14.4139 36.4404L17.2402 39.413C17.7606 39.9603 17.7387 40.8257 17.1915 41.346L14.2188 44.1723C13.6715 44.6926 12.8061 44.6707 12.2858 44.1235L9.45944 41.1509Z" fill="#FFB74D"/>
<path d="M6.9438 8.6614C6.56062 8.01072 6.77748 7.17263 7.42817 6.78946L10.9627 4.7081C11.6134 4.32493 12.4515 4.54179 12.8346 5.19246L14.916 8.72692C15.2992 9.3776 15.0824 10.2157 14.4317 10.5989L10.8972 12.6802C10.2465 13.0634 9.40837 12.8465 9.02519 12.1959L6.9438 8.6614Z" fill="#FFB74D"/>
<path d="M36.9729 16.4229C36.439 15.889 36.439 15.0233 36.9729 14.4893L39.8733 11.5889C40.4073 11.055 41.273 11.055 41.807 11.5889L44.7074 14.4893C45.2413 15.0233 45.2413 15.889 44.7074 16.4229L41.807 19.3233C41.273 19.8573 40.4073 19.8573 39.8733 19.3233L36.9729 16.4229Z" fill="#FFB74D"/>
<path d="M17.913 24.0245C17.3304 23.0532 17.6456 21.7934 18.617 21.2109L23.8935 18.0464C24.8649 17.4638 26.1247 17.779 26.7072 18.7504L29.8718 24.0268C30.4543 24.9982 30.1392 26.2579 29.1678 26.8405L23.8912 30.005C22.9198 30.5875 21.6601 30.2724 21.0775 29.301L17.913 24.0245Z" fill="#FFB74D"/>
</svg>
